<svg width="102" height="102" viewBox="0 0 102 102" fill="none" xmlns="http://www.w3.org/2000/svg">
<rect width="102" height="102" rx="51" fill="#FBFBFB"/>
<g style="mix-blend-mode:difference" opacity="0.2" filter="url(#filter0_d_26_13894)">
<path d="M33.5949 34.0325L28.6753 35.7639C26.7051 36.42 25.8926 37.2948 25.1241 38.9239C22.6463 44.1805 20.6159 56.718 34.8227 67.8551L31.2114 59.549L28.7636 46.7024L33.5949 34.0325Z" fill="#E2E2E2"/>
<path d="M33.595 34.0325L28.7637 46.7025L31.2115 59.549L34.8229 67.8552C20.6181 56.7201 22.6484 44.1805 25.1243 38.924C25.8927 37.2948 26.7032 36.4201 28.6755 35.764L33.595 34.0325ZM35.9023 31.7834L33.1436 32.7545L28.2341 34.484C25.7482 35.3146 24.731 36.5786 23.8984 38.3481C23.0497 40.1498 21.2019 45.0332 22.3836 51.4334C22.9374 54.4309 24.093 57.3461 25.8164 60.0967C27.7947 63.2547 30.5433 66.2241 33.9862 68.9226L38.1995 72.227L36.0648 67.3175L32.5136 59.1497L30.1662 46.8289L34.861 34.5181L35.9023 31.7855V31.7834Z" fill="url(#paint0_linear_26_13894)"/>
<path d="M53.2771 25C38.9178 25 27.2771 36.6407 27.2771 51C27.2771 65.3593 38.9178 77 53.2771 77C67.6364 77 79.2771 65.3593 79.2771 51C79.2771 36.6407 67.6364 25 53.2771 25ZM53.2771 74.9475C40.0514 74.9475 29.3316 64.2257 29.3316 51.002C29.3316 37.7783 40.0534 27.0565 53.2771 27.0565C66.5008 27.0565 77.2226 37.7783 77.2226 51.002C77.2226 64.2257 66.5008 74.9475 53.2771 74.9475Z" fill="url(#paint1_linear_26_13894)"/>
<path d="M47.9342 70.8306C45.0953 67.468 44.5696 62.3398 46.6642 58.4696C48.187 55.6587 50.404 53.2491 52.922 51.3612C54.3866 50.2617 54.0616 50.5787 55.1811 49.7541C46.9853 52.573 41.6384 45.7234 41.6384 45.7234C42.9445 46.7567 44.4031 47.6093 45.9901 48.129C47.2581 48.5463 48.5943 48.7409 49.9285 48.6908C51.0561 48.6486 52.1756 48.4319 53.245 48.0728C54.2121 47.7478 55.155 47.3204 56.0238 46.7868C56.4331 46.536 56.8122 46.243 57.1413 45.898C57.2938 45.7374 57.4362 45.5669 57.5646 45.3843C58.016 44.7423 58.3391 44.018 58.6781 43.3118C58.7022 43.2636 58.7243 43.2155 58.7484 43.1673C59.6632 41.2613 60.3935 39.2189 60.4357 37.1062C60.4417 36.7752 60.4317 36.4421 60.4016 36.1111C60.1508 37.4914 59.7355 38.8517 59.0012 40.0555C58.7945 40.3966 58.5638 40.7216 58.317 41.0346C58.0201 41.4138 57.7331 41.8251 57.2215 41.8993C56.8122 41.9595 56.6216 41.6445 56.6257 41.2714C56.6257 41.0406 56.736 40.826 56.9005 40.6675C57.9478 39.6502 58.7604 38.3963 59.1536 36.9818C59.6111 35.3366 59.5489 33.4326 58.8567 31.8597C58.5216 31.0993 57.994 30.5134 57.384 29.9597C56.8443 29.4721 56.2404 29.0568 55.6004 28.7118C54.3124 28.0176 52.8758 27.6223 51.4233 27.4738C49.9506 27.3234 48.4519 27.4217 47.0053 27.7407C46.9913 27.7447 46.9772 27.7467 46.9632 27.7507C41.9293 28.8803 37.0319 31.7513 34.0324 35.752C29.6526 41.5944 28.4789 49.6598 29.8653 56.7161C30.732 61.122 32.634 65.5881 35.8481 68.7239C41.9434 74.6707 52.1054 76.8375 60.1267 73.9785C55.9616 75.395 50.7672 74.1912 47.9302 70.8286L47.9342 70.8306ZM51.3731 32.0463C53.2129 32.0463 54.7036 33.537 54.7036 35.3768C54.7036 37.2166 53.2129 38.7073 51.3731 38.7073C49.5333 38.7073 48.0426 37.2166 48.0426 35.3768C48.0426 33.537 49.5333 32.0463 51.3731 32.0463Z" fill="url(#paint2_linear_26_13894)"/>
<path d="M56.6076 68.3727C58.447 68.3727 59.9381 66.8816 59.9381 65.0422C59.9381 63.2028 58.447 61.7117 56.6076 61.7117C54.7682 61.7117 53.2771 63.2028 53.2771 65.0422C53.2771 66.8816 54.7682 68.3727 56.6076 68.3727Z" fill="url(#paint3_linear_26_13894)"/>
<path d="M50.2816 51.8786C50.5143 51.686 50.3678 51.3068 50.0649 51.3189C47.7716 51.4112 42.0717 51.9649 40.3944 55.177C38.2777 59.2298 42.5351 61.7117 42.5351 61.7117C42.5351 61.7117 46.1746 55.2473 50.2796 51.8807L50.2816 51.8786Z" fill="#E5E5E5"/>
</g>
<defs>
<filter id="filter0_d_26_13894" x="8" y="11" width="85.2771" height="80" filterUnits="userSpaceOnUse" color-interpolation-filters="sRGB">
<feFlood flood-opacity="0" result="BackgroundImageFix"/>
<feColorMatrix in="SourceAlpha" type="matrix" values="0 0 0 0 0 0 0 0 0 0 0 0 0 0 0 0 0 0 127 0" result="hardAlpha"/>
<feOffset/>
<feGaussianBlur stdDeviation="7"/>
<feComposite in2="hardAlpha" operator="out"/>
<feColorMatrix type="matrix" values="0 0 0 0 0 0 0 0 0 0 0 0 0 0 0 0 0 0 0.25 0"/>
<feBlend mode="normal" in2="BackgroundImageFix" result="effect1_dropShadow_26_13894"/>
<feBlend mode="normal" in="SourceGraphic" in2="effect1_dropShadow_26_13894" result="shape"/>
</filter>
<linearGradient id="paint0_linear_26_13894" x1="24.6849" y1="58.1687" x2="44.5254" y2="46.7146" gradientUnits="userSpaceOnUse">
<stop stop-color="#E5E5E5"/>
<stop offset="0.45" stop-color="#F4F4F4"/>
<stop offset="0.69" stop-color="white"/>
</linearGradient>
<linearGradient id="paint1_linear_26_13894" x1="27.2771" y1="51.002" x2="79.2791" y2="51.002" gradientUnits="userSpaceOnUse">
<stop offset="0.56" stop-color="white"/>
<stop offset="1" stop-color="#D3D3D3"/>
</linearGradient>
<linearGradient id="paint2_linear_26_13894" x1="29.3195" y1="51.319" x2="60.4397" y2="51.319" gradientUnits="userSpaceOnUse">
<stop offset="0.56" stop-color="white"/>
<stop offset="1" stop-color="#D8D8D8"/>
</linearGradient>
<linearGradient id="paint3_linear_26_13894" x1="50.7852" y1="65.0422" x2="62.1411" y2="65.0422" gradientUnits="userSpaceOnUse">
<stop offset="0.56" stop-color="white"/>
<stop offset="1" stop-color="#D8D8D8"/>
</linearGradient>
</defs>
</svg>
