<svg width="89" height="80" viewBox="0 0 89 80" fill="none" xmlns="http://www.w3.org/2000/svg">
<path d="M17.8384 13.8961L10.2699 16.5599C7.23883 17.5693 5.98873 18.9151 4.80654 21.4214C0.994521 29.5085 -2.12917 48.797 19.7275 65.931L14.1715 53.1523L10.4057 33.3884L17.8384 13.8961Z" fill="#E2E2E2"/>
<path d="M17.8384 13.8961L10.4058 33.3884L14.1715 53.1522L19.7275 65.931C-2.12608 48.8 0.997614 29.5084 4.80655 21.4214C5.98874 18.915 7.23575 17.5692 10.2699 16.5599L17.8384 13.8961ZM21.3881 10.436L17.1439 11.9299L9.59087 14.5906C5.7665 15.8685 4.20157 17.8131 2.92061 20.5355C1.61495 23.3073 -1.22786 30.8203 0.590184 40.6667C1.4421 45.2782 3.22001 49.7631 5.87145 53.9949C8.9149 58.8533 13.1436 63.4215 18.4403 67.5731L24.9223 72.6568L21.6381 65.1038L16.1747 52.538L12.5633 33.5828L19.7861 14.6431L21.3881 10.4391V10.436Z" fill="url(#paint0_linear_1_4)"/>
<path d="M48.1185 0C26.0273 0 8.11853 17.9088 8.11853 40C8.11853 62.0912 26.0273 80 48.1185 80C70.2098 80 88.1185 62.0912 88.1185 40C88.1185 17.9088 70.2098 0 48.1185 0ZM48.1185 76.8424C27.7713 76.8424 11.2793 60.3472 11.2793 40.0031C11.2793 19.6589 27.7744 3.16382 48.1185 3.16382C68.4627 3.16382 84.9578 19.6589 84.9578 40.0031C84.9578 60.3472 68.4627 76.8424 48.1185 76.8424Z" fill="url(#paint1_linear_1_4)"/>
<path d="M39.8987 70.5086C35.5311 65.3353 34.7224 57.4458 37.9449 51.4917C40.2877 47.1672 43.6984 43.4602 47.5722 40.5556C49.8254 38.8641 49.3254 39.3518 51.0477 38.0832C38.4387 42.42 30.2128 31.8821 30.2128 31.8821C32.2222 33.4717 34.4662 34.7836 36.9078 35.583C38.8585 36.225 40.9142 36.5244 42.9669 36.4473C44.7016 36.3824 46.4239 36.0491 48.0691 35.4966C49.5569 34.9965 51.0076 34.3391 52.3441 33.518C52.9738 33.1322 53.5572 32.6815 54.0634 32.1506C54.298 31.9037 54.5172 31.6413 54.7147 31.3605C55.4092 30.3727 55.9061 29.2584 56.4278 28.1719C56.4648 28.0979 56.4988 28.0238 56.5358 27.9497C57.9433 25.0174 59.0669 21.8752 59.1317 18.6249C59.141 18.1156 59.1255 17.6032 59.0792 17.0939C58.6934 19.2176 58.0545 21.3103 56.9248 23.1623C56.6068 23.687 56.2519 24.1871 55.8722 24.6686C55.4154 25.252 54.974 25.8847 54.1869 25.9989C53.5572 26.0915 53.264 25.6069 53.2701 25.0328C53.2701 24.6778 53.4399 24.3476 53.693 24.1037C55.3042 22.5388 56.5543 20.6096 57.1593 18.4335C57.8631 15.9025 57.7674 12.9732 56.7025 10.5533C56.187 9.38346 55.3752 8.48215 54.4369 7.63023C53.6066 6.88017 52.6775 6.24124 51.6929 5.71034C49.7112 4.64235 47.5012 4.03427 45.2664 3.80586C43.0008 3.57436 40.6951 3.72561 38.4696 4.21639C38.448 4.22256 38.4264 4.22564 38.4048 4.23182C30.6604 5.9696 23.1258 10.3866 18.5113 16.5414C11.7731 25.5298 9.96742 37.9381 12.1003 48.7939C13.4337 55.5722 16.3599 62.4431 21.3047 67.2676C30.682 76.4164 46.3159 79.75 58.6564 75.3515C52.2485 77.5307 44.2571 75.6787 39.8926 70.5055L39.8987 70.5086ZM45.1893 10.8404C48.0197 10.8404 50.3131 13.1337 50.3131 15.9642C50.3131 18.7947 48.0197 21.0881 45.1893 21.0881C42.3588 21.0881 40.0654 18.7947 40.0654 15.9642C40.0654 13.1337 42.3588 10.8404 45.1893 10.8404Z" fill="url(#paint2_linear_1_4)"/>
<path d="M53.2424 66.7274C56.0722 66.7274 58.3663 64.4333 58.3663 61.6035C58.3663 58.7737 56.0722 56.4796 53.2424 56.4796C50.4126 56.4796 48.1186 58.7737 48.1186 61.6035C48.1186 64.4333 50.4126 66.7274 53.2424 66.7274Z" fill="url(#paint3_linear_1_4)"/>
<path d="M43.5101 41.352C43.8682 41.0556 43.6429 40.4723 43.1768 40.4908C39.6487 40.6328 30.8795 41.4847 28.2991 46.4264C25.0427 52.6615 31.5926 56.4797 31.5926 56.4797C31.5926 56.4797 37.1917 46.5345 43.507 41.355L43.5101 41.352Z" fill="#E5E5E5"/>
<defs>
<linearGradient id="paint0_linear_1_4" x1="4.13058" y1="51.0286" x2="34.6545" y2="33.4069" gradientUnits="userSpaceOnUse">
<stop stop-color="#E5E5E5"/>
<stop offset="0.45" stop-color="#F4F4F4"/>
<stop offset="0.69" stop-color="white"/>
</linearGradient>
<linearGradient id="paint1_linear_1_4" x1="8.11853" y1="40.0031" x2="88.1216" y2="40.0031" gradientUnits="userSpaceOnUse">
<stop offset="0.56" stop-color="white"/>
<stop offset="1" stop-color="#D3D3D3"/>
</linearGradient>
<linearGradient id="paint2_linear_1_4" x1="11.2607" y1="40.4908" x2="59.1379" y2="40.4908" gradientUnits="userSpaceOnUse">
<stop offset="0.56" stop-color="white"/>
<stop offset="1" stop-color="#D8D8D8"/>
</linearGradient>
<linearGradient id="paint3_linear_1_4" x1="44.2849" y1="61.6035" x2="61.7554" y2="61.6035" gradientUnits="userSpaceOnUse">
<stop offset="0.56" stop-color="white"/>
<stop offset="1" stop-color="#D8D8D8"/>
</linearGradient>
</defs>
</svg>
